# xmcd
#
# Track frame offsets:
#	150
#	13726
#	35049
#	49344
#	68748
#	79793
#	106882
#	130415
#	144469
#	163890
#	180815
#
# Disc length: 2681 seconds
# Revision: 0
# Processed by: cddbd v1.5.2PL0 Copyright (c) Steve Scherf et al.
# Submitted via: dBpowerAMP V12.0
#
DISCID=930a770b
DTITLE=The Kniki and Mike Beale Project - The Kniki and Mike Beale Project
DYEAR=2013
DGENRE=Blues
TTITLE0=Come a Little Closer
TTITLE1=Drop Down
TTITLE2=She's Leaving Home
TTITLE3=A Year and a Day
TTITLE4=I Gave In
TTITLE5=Battered and Bruised
TTITLE6=Nowhere Else
TTITLE7=Holding Hands with the Devil
TTITLE8=Wax n Wane
TTITLE9=Piece of My Heart
TTITLE10=Drop Down - Dirty Mix
EXTD=
EXTT0=
EXTT1=
EXTT2=
EXTT3=
EXTT4=
EXTT5=
EXTT6=
EXTT7=
EXTT8=
EXTT9=
EXTT10=
PLAYORDER=
